<svg viewBox="0 0 473.83 411.04" xmlns="http://www.w3.org/2000/svg"><path d="m248.21 128.47a122.29 122.29 0 0 1 15.39-25.36c20.22-25.3 46.21-41 78.24-46.08a123.73 123.73 0 0 1 140 94.33c3.5 15 3.87 30.19 2.19 45.45-3.6 32.61-15.9 62.05-32.9 89.74-16.24 26.45-36.05 50.08-58 72-41.28 41.22-87.63 75.86-137.64 105.73-5.18 3.09-9.75 3-14.92-.07-50-29.81-96.23-64.43-137.47-105.58-22.86-22.89-43.43-47.63-60.1-75.52-13.2-22.19-23.38-45.62-28.43-71.11-5.65-28.47-5-56.53 7.57-83.22 18.75-39.92 50-64.51 93.55-71.67 54.76-9 107.37 19.2 131.37 69.14.29.63.62 1.2 1.15 2.22z" fill="#f22c22" transform="translate(-11.17 -55.48)"/></svg>